<?xml version="1.0" encoding="iso-8859-1"?>
<!-- Generator: Adobe Illustrator 16.0.0, SVG Export Plug-In . SVG Version: 6.00 Build 0)  -->
<!DOCTYPE svg PUBLIC "-//W3C//DTD SVG 1.1//EN" "http://www.w3.org/Graphics/SVG/1.1/DTD/svg11.dtd">
<svg version="1.1" id="Capa_1" xmlns="http://www.w3.org/2000/svg" xmlns:xlink="http://www.w3.org/1999/xlink" x="0px" y="0px"
	 width="95.885px" height="95.885px" viewBox="0 0 95.885 95.885" style="enable-background:new 0 0 95.885 95.885;"
	 xml:space="preserve">
<g>
	<path d="M95.885,73.165c-0.389-0.302-49.533-27.236-49.98-27.426l27.421,50c0.056-7.521,0.011-15.046,0.021-22.568
		C80.859,73.161,88.374,73.171,95.885,73.165z"/>
	<path d="M48.695,59.145c-1.783,0.636-3.694,1.001-5.693,1.001c-9.374,0-17-7.626-17-17s7.626-17,17-17s17,7.626,17,17
		c0,1.844-0.305,3.615-0.85,5.277c1.68,0.918,3.473,1.899,5.334,2.918c0.976-2.547,1.516-5.31,1.516-8.195c0-12.682-10.316-23-23-23
		c-12.683,0-23,10.318-23,23c0,12.682,10.317,23,23,23c3.044,0,5.949-0.6,8.611-1.68L48.695,59.145z"/>
	<path d="M58.372,76.79c-4.685,2.147-9.888,3.355-15.37,3.355c-20.402,0-37.001-16.598-37.001-37s16.599-37,37.001-37
		c20.402,0,37,16.598,37,37c0,5.322-1.139,10.382-3.171,14.959c1.797,0.984,3.567,1.957,5.272,2.895
		c2.496-5.441,3.897-11.484,3.897-17.854c0-23.71-19.29-43-43-43C19.29,0.146,0,19.436,0,43.146s19.29,43,43.001,43
		c6.526,0,12.716-1.469,18.263-4.082L58.372,76.79z"/>
</g>
<g>
</g>
<g>
</g>
<g>
</g>
<g>
</g>
<g>
</g>
<g>
</g>
<g>
</g>
<g>
</g>
<g>
</g>
<g>
</g>
<g>
</g>
<g>
</g>
<g>
</g>
<g>
</g>
<g>
</g>
</svg>
